<?xml version="1.0" standalone="no"?>
<!DOCTYPE svg PUBLIC "-//W3C//DTD SVG 20010904//EN"
 "http://www.w3.org/TR/2001/REC-SVG-20010904/DTD/svg10.dtd">
<svg version="1.0" xmlns="http://www.w3.org/2000/svg"
 width="144.000000pt" height="144.000000pt" viewBox="0 0 144.000000 144.000000"
 preserveAspectRatio="xMidYMid meet">
<metadata>
Created by potrace 1.11, written by Peter Selinger 2001-2013
</metadata>
<g transform="translate(0.000000,144.000000) scale(0.100000,-0.100000)"
fill="#000000" stroke="none">
<path d="M845 1409 c-4 -5 -4 -21 -1 -34 5 -20 3 -22 -17 -18 -12 3 -32 18
-45 32 -20 23 -22 23 -12 4 10 -22 9 -23 -35 -23 -26 0 -55 5 -65 10 -16 8
-18 7 -14 -4 10 -25 -62 -33 -89 -10 -12 10 -16 12 -10 5 10 -12 5 -18 -28
-33 -51 -22 -52 -22 -38 1 16 24 4 53 -18 49 -22 -4 -30 -48 -12 -59 21 -12 2
-23 -38 -22 -23 1 -31 -2 -22 -7 11 -7 10 -13 -5 -29 l-19 -21 -19 32 c-22 37
-46 58 -65 58 -20 0 -15 -28 12 -68 l26 -37 -38 -32 c-21 -18 -42 -33 -47 -33
-5 0 -15 -8 -23 -17 -8 -10 -12 -13 -9 -6 4 6 0 14 -6 17 -9 3 -4 13 15 28 32
28 34 44 7 53 -31 10 -66 -23 -62 -59 2 -15 -1 -26 -6 -23 -5 4 -8 -13 -8 -36
1 -23 6 -44 12 -47 8 -3 -1 -19 -21 -43 -30 -34 -35 -37 -58 -26 -14 6 -34 8
-44 5 -17 -7 -16 -9 6 -27 15 -12 31 -17 44 -13 17 5 19 3 13 -12 -5 -11 -9
-23 -10 -29 -7 -27 -19 -45 -31 -45 -22 0 -29 -22 -12 -35 23 -17 21 -48 -4
-63 -12 -7 -18 -16 -15 -19 3 -3 12 0 21 7 13 11 15 6 15 -39 0 -29 -5 -62
-12 -74 -10 -19 -9 -20 4 -9 14 11 17 8 22 -23 8 -39 -5 -65 -31 -65 -16 0
-28 -24 -19 -39 10 -15 36 -1 36 18 0 35 14 30 32 -11 17 -37 17 -43 3 -50
-23 -14 -55 -50 -55 -64 0 -7 -3 -19 -6 -28 -11 -29 23 -17 55 19 37 42 43 44
35 8 -4 -22 -3 -25 5 -13 10 13 14 12 31 -9 11 -13 20 -31 20 -40 0 -9 9 -22
20 -29 11 -7 20 -19 20 -27 0 -8 9 -19 20 -25 24 -13 26 -30 5 -30 -8 0 -15 4
-15 9 0 19 -43 5 -51 -18 -7 -19 -6 -22 6 -17 11 4 15 -1 15 -17 0 -12 4 -17
8 -12 4 6 13 10 20 11 28 2 32 5 32 20 0 9 3 14 8 12 70 -34 82 -50 57 -78
-31 -34 -4 -78 31 -50 11 10 18 10 26 2 9 -9 16 -8 29 4 17 15 21 15 53 -4 19
-12 36 -16 38 -11 2 6 15 8 28 4 20 -5 25 -12 25 -38 0 -42 17 -49 30 -11 5
16 11 31 12 33 2 3 18 -9 36 -25 17 -16 26 -22 20 -14 -21 23 -15 30 21 30 28
0 37 -5 47 -29 15 -32 34 -31 23 1 -5 17 -3 19 18 13 16 -4 19 -3 9 3 -15 11
-8 16 30 26 19 4 35 -1 55 -16 l29 -22 -19 22 c-19 22 -19 22 0 22 10 0 28 7
38 15 27 21 35 19 46 -10 11 -28 28 -33 37 -10 3 9 -2 22 -13 30 -18 14 -18
14 7 15 14 0 34 -9 44 -20 12 -14 31 -20 57 -20 52 0 46 18 -16 49 -45 22 -47
25 -30 38 10 7 24 13 30 13 7 0 25 11 39 26 29 28 45 24 45 -12 0 -23 18 -32
34 -17 4 5 20 8 34 8 20 0 27 5 27 20 1 11 4 26 9 33 5 9 1 20 -12 32 -15 14
-22 16 -25 7 -3 -7 -6 -2 -6 10 -1 12 6 28 14 37 8 8 15 19 15 24 0 5 9 17 21
28 12 10 28 32 36 48 14 26 16 27 31 12 15 -15 15 -17 0 -28 -14 -11 -15 -16
-5 -29 9 -12 19 -14 45 -7 18 5 30 13 27 18 -4 6 -2 10 4 10 10 0 9 14 -3 42
-8 17 -22 18 -43 5 -54 -34 -37 151 18 195 24 19 24 19 1 8 -24 -12 -24 -12
-20 49 1 34 0 61 -4 61 -15 0 -20 70 -7 87 10 12 10 14 2 9 -25 -15 -13 23 17
52 32 32 41 82 16 82 -8 0 -27 -16 -42 -36 l-27 -35 -14 32 c-7 18 -11 42 -8
53 5 15 3 17 -3 8 -13 -18 -62 40 -55 66 3 13 -4 22 -22 30 -22 10 -24 15 -15
33 6 11 18 23 26 26 18 7 18 23 0 23 -8 0 -22 -10 -30 -21 -14 -21 -15 -21
-51 15 -37 37 -39 56 -4 56 21 0 35 22 25 39 -10 15 -32 3 -44 -25 -15 -30
-42 -32 -43 -1 0 19 -1 19 -8 4 -6 -16 -9 -16 -30 7 -13 14 -44 33 -68 42 -23
9 -43 22 -43 28 0 6 -4 5 -9 -2 -5 -8 -17 -12 -27 -10 -15 3 -18 11 -16 41 3
28 0 37 -12 37 -8 0 -18 -5 -21 -11z m-199 -96 l-6 -28 15 28 c14 25 21 27 66
26 28 -1 53 -7 55 -13 3 -7 21 -10 44 -8 22 2 48 1 58 -3 14 -5 12 -9 -14 -20
-17 -7 -41 -26 -53 -41 -23 -29 -23 -29 -3 -32 25 -4 101 34 108 53 5 13 10
12 35 -1 16 -8 29 -19 29 -24 0 -6 11 -10 25 -10 28 0 33 -21 10 -40 -12 -10
-16 -9 -21 4 -6 16 -33 23 -35 9 0 -5 -2 -18 -5 -30 -3 -16 1 -23 12 -23 9 0
12 -5 8 -12 -5 -7 -3 -8 6 -3 8 5 18 1 27 -10 12 -17 13 -17 13 -2 0 9 4 17 9
17 10 0 9 19 -2 36 -12 21 19 37 45 23 42 -22 51 -31 36 -40 -9 -6 -6 -9 10
-9 12 0 22 -4 22 -9 0 -5 -10 -15 -22 -24 -21 -14 -22 -16 -7 -33 9 -11 19
-27 22 -36 8 -21 72 -25 80 -5 7 16 29 -13 22 -30 -2 -7 2 -13 10 -13 8 0 15
-6 15 -12 0 -7 9 -24 20 -38 11 -14 19 -32 19 -40 0 -8 -4 -5 -9 8 -9 22 -44
30 -54 13 -12 -19 7 -41 35 -41 16 0 29 -4 29 -10 0 -5 -7 -10 -15 -10 -8 0
-15 -9 -15 -20 0 -15 7 -20 25 -20 20 0 25 -5 25 -25 0 -22 -3 -25 -27 -20
-25 5 -24 4 6 -10 33 -15 34 -15 27 -68 -4 -28 -9 -70 -12 -92 -3 -22 -8 -51
-11 -65 l-6 -25 -6 24 c-4 14 -12 26 -18 28 -17 6 -28 -46 -15 -68 16 -25 -5
-74 -24 -58 -10 8 -11 5 -7 -12 5 -19 3 -21 -13 -14 -31 13 -74 18 -74 8 0
-18 24 -33 52 -33 15 0 28 -2 28 -5 0 -11 -26 -51 -45 -70 -11 -11 -25 -32
-32 -47 -11 -25 -24 -34 -103 -75 -19 -10 -38 -22 -42 -28 -4 -5 -11 -10 -15
-10 -4 0 -20 -9 -35 -19 -16 -10 -34 -16 -43 -13 -8 4 -17 2 -20 -2 -2 -5 -21
-12 -41 -15 -19 -4 -43 -10 -51 -13 -13 -5 -15 -1 -9 23 l6 29 -15 -27 c-9
-16 -25 -29 -38 -30 -37 -2 -72 3 -81 13 -6 5 -21 9 -35 9 -23 0 -23 1 -8 18
17 19 35 82 23 82 -19 0 -46 -23 -66 -55 -20 -33 -50 -48 -50 -25 0 6 -6 10
-14 10 -7 0 -25 11 -39 24 -14 13 -28 22 -31 19 -5 -6 -78 32 -115 59 -15 11
-18 18 -10 19 8 0 -1 5 -19 10 -22 7 -32 16 -32 29 0 11 6 20 14 20 7 0 19 7
26 15 10 11 9 18 -4 30 -9 9 -16 13 -16 8 0 -4 -4 -2 -8 5 -6 9 -14 7 -31 -9
-25 -24 -35 -18 -47 28 -3 13 -10 23 -15 23 -5 0 -9 5 -9 10 0 6 -10 25 -23
42 -16 23 -19 32 -9 35 10 4 10 8 2 18 -6 8 -18 37 -25 65 l-14 52 27 -6 27
-6 -28 16 c-25 13 -28 20 -26 61 2 25 9 51 15 58 7 7 10 15 7 19 -4 3 3 6 15
6 15 0 22 6 22 19 0 10 7 24 15 31 12 10 13 16 4 27 -7 8 -18 12 -26 9 -7 -3
-13 1 -13 10 0 9 5 12 12 8 7 -4 8 -3 4 4 -8 14 20 72 35 72 6 0 7 6 3 13 -6
10 -4 10 7 0 15 -15 45 -17 53 -4 9 14 -4 40 -24 46 -17 5 -17 8 -3 35 8 17
22 35 32 42 10 7 21 23 25 36 6 19 10 21 22 11 8 -6 14 -20 14 -31 0 -22 27
-35 41 -21 7 7 0 18 -20 32 -17 13 -31 28 -31 35 0 16 96 69 110 61 5 -3 10 1
10 9 0 9 5 16 11 16 6 0 22 9 36 20 28 22 55 28 35 8 -14 -14 -16 -44 -3 -52
14 -9 41 4 41 19 0 7 8 12 18 11 11 -1 17 6 17 19 0 11 11 25 25 32 37 18 43
16 36 -14z m289 7 c3 -5 2 -10 -4 -10 -5 0 -13 5 -16 10 -3 6 -2 10 4 10 5 0
13 -4 16 -10z m90 -41 c20 -18 33 -34 31 -37 -6 -5 -92 44 -101 58 -14 23 37
7 70 -21z m115 -84 c7 -8 8 -15 2 -15 -5 0 -15 7 -22 15 -7 8 -8 15 -2 15 5 0
15 -7 22 -15z m-885 -54 c-3 -6 -11 -11 -17 -11 -6 0 -6 6 2 15 14 17 26 13
15 -4z m-76 -122 c-25 -44 -49 -62 -49 -35 0 17 60 90 67 82 3 -3 -5 -24 -18
-47z m1121 -554 c0 -16 -60 -88 -68 -81 -7 7 47 96 58 96 6 0 10 -7 10 -15z
m-1040 -112 c0 -5 -4 -14 -9 -22 -7 -11 -11 -9 -20 8 -10 18 -9 21 9 21 11 0
20 -3 20 -7z m56 -111 c-4 -3 -14 2 -24 12 -16 18 -16 18 6 6 13 -6 21 -14 18
-18z m151 -84 c7 -6 10 -14 7 -19 -8 -13 -81 27 -94 52 -11 20 -11 20 32 -2
24 -12 49 -26 55 -31z m-77 -11 c0 -5 -7 -4 -15 3 -8 7 -15 20 -15 29 1 13 3
13 15 -3 8 -11 15 -24 15 -29z m125 -17 c3 -5 1 -10 -4 -10 -6 0 -11 5 -11 10
0 6 2 10 4 10 3 0 8 -4 11 -10z m112 -26 c-3 -3 -12 -4 -19 -1 -8 3 -5 6 6 6
11 1 17 -2 13 -5z"/>
<path d="M200 981 c0 -6 4 -13 10 -16 6 -3 7 1 4 9 -7 18 -14 21 -14 7z"/>
<path d="M388 923 l33 -4 -3 -205 -3 -204 50 -2 c110 -4 156 5 189 39 19 19
26 36 26 65 0 52 -13 74 -57 97 l-37 18 32 17 c37 19 52 43 52 86 0 79 -44
101 -202 98 -62 0 -98 -3 -80 -5z m197 -28 c48 -47 27 -138 -34 -155 -72 -20
-71 -21 -71 85 l0 95 40 0 c30 0 47 -7 65 -25z m12 -210 c39 -45 26 -131 -24
-154 -13 -6 -39 -11 -58 -11 l-35 0 0 101 0 102 47 -6 c35 -4 53 -12 70 -32z"/>
<path d="M768 923 l33 -4 -3 -204 -3 -203 56 -5 c128 -11 209 31 209 109 0 48
-14 70 -57 93 l-37 18 32 17 c37 19 52 43 52 86 0 79 -44 101 -202 98 -62 0
-98 -3 -80 -5z m175 -15 c34 -17 46 -39 47 -80 0 -51 -33 -86 -87 -94 l-43 -7
0 97 0 96 31 0 c17 0 40 -5 52 -12z m34 -223 c56 -64 9 -165 -76 -165 l-41 0
0 101 0 102 47 -6 c35 -4 53 -12 70 -32z"/>
<path d="M1070 301 c0 -10 6 -24 14 -30 11 -10 16 -8 21 8 3 12 3 25 0 31 -11
17 -35 11 -35 -9z"/>
<path d="M1351 563 c-12 -24 1 -46 25 -41 13 2 19 12 19 28 0 30 -30 39 -44
13z"/>
<path d="M1268 363 c7 -3 16 -2 19 1 4 3 -2 6 -13 5 -11 0 -14 -3 -6 -6z"/>
<path d="M150 285 c0 -23 26 -29 50 -12 l21 14 -23 7 c-36 9 -48 7 -48 -9z"/>
</g>
</svg>
